<?xml version="1.0" standalone="no"?>
<!DOCTYPE svg PUBLIC "-//W3C//DTD SVG 20010904//EN"
"http://www.w3.org/TR/2001/REC-SVG-20010904/DTD/svg10.dtd">
<svg version="1.0" xmlns="http://www.w3.org/2000/svg"
width="1920.000000pt" height="1080.000000pt" viewBox="0 0 1920.000000 1080.000000"
preserveAspectRatio="xMidYMid meet">
 
<g transform="translate(0.000000,1080.000000) scale(0.100000,-0.100000)"
fill="#558f61" stroke="none">
<path d="M10872 10791 c2 -5 701 -1441 1553 -3190 l1550 -3180 22 27 c12 15
982 1163 2156 2552 1174 1389 2133 2526 2133 2527 -1 1 -976 288 -2168 637
l-2166 636 -1542 0 c-944 0 -1540 -4 -1538 -9z"/>
<path d="M4252 8772 l-753 -436 53 -47 c29 -26 505 -456 1058 -957 553 -500
1006 -909 1008 -908 2 2 -602 2751 -611 2778 -1 4 -341 -189 -755 -430z"/>
<path d="M960 5384 c-476 -1059 -867 -1930 -869 -1936 -3 -10 2517 -3 3716 11
l532 6 -82 125 c-45 69 -608 934 -1252 1923 -643 988 -1172 1797 -1175 1797
-3 0 -394 -867 -870 -1926z"/>
<path d="M6674 5493 c-456 -681 -999 -1491 -1206 -1800 l-377 -562 47 17 c888
334 4002 1518 4002 1522 0 4 -1610 2034 -1629 2053 -4 4 -380 -550 -837 -1230z"/>
<path d="M9130 2840 c-2071 -669 -3765 -1219 -3765 -1222 0 -3 356 -368 790
-811 l790 -805 2485 1 2485 2 491 2000 c540 2196 506 2055 496 2054 -4 -1
-1701 -549 -3772 -1219z"/>
<path d="M16823 2613 c-336 -791 -610 -1439 -609 -1441 6 -5 2101 -83 2162
-80 l61 3 -498 1470 c-274 809 -500 1473 -501 1477 -2 5 -278 -639 -615 -1429z"/>
</g>
</svg>